<?xml version="1.0" encoding="UTF-8" standalone="no"?>
<!-- Generator: Adobe Illustrator 19.0.0, SVG Export Plug-In . SVG Version: 6.00 Build 0)  -->

<svg
   xmlns:dc="http://purl.org/dc/elements/1.1/"
   xmlns:cc="http://creativecommons.org/ns#"
   xmlns:rdf="http://www.w3.org/1999/02/22-rdf-syntax-ns#"
   xmlns:svg="http://www.w3.org/2000/svg"
   xmlns="http://www.w3.org/2000/svg"
   xmlns:sodipodi="http://sodipodi.sourceforge.net/DTD/sodipodi-0.dtd"
   xmlns:inkscape="http://www.inkscape.org/namespaces/inkscape"
   version="1.1"
   id="Ebene_1"
   x="0px"
   y="0px"
   viewBox="0 0 16 16"
   style="enable-background:new 0 0 16 16;"
   xml:space="preserve"
   inkscape:version="0.91 r13725"
   sodipodi:docname="absconnection16x16.svg"
   inkscape:export-filename="/home/oole/workspace/org.knime.cloud.azure/src/org/knime/cloud/azure/abs/node/connector/absconnection16x16.svg.png"
   inkscape:export-xdpi="90"
   inkscape:export-ydpi="90"><metadata
     id="metadata17"><rdf:RDF><cc:Work
         rdf:about=""><dc:format>image/svg+xml</dc:format><dc:type
           rdf:resource="http://purl.org/dc/dcmitype/StillImage" /></cc:Work></rdf:RDF></metadata><defs
     id="defs15" /><sodipodi:namedview
     pagecolor="#ffffff"
     bordercolor="#666666"
     borderopacity="1"
     objecttolerance="10"
     gridtolerance="10"
     guidetolerance="10"
     inkscape:pageopacity="0"
     inkscape:pageshadow="2"
     inkscape:window-width="2560"
     inkscape:window-height="1364"
     id="namedview13"
     showgrid="false"
     inkscape:zoom="14.75"
     inkscape:cx="-25.830508"
     inkscape:cy="5.4000924"
     inkscape:window-x="0"
     inkscape:window-y="24"
     inkscape:window-maximized="1"
     inkscape:current-layer="XMLID_1_" /><path
     d="M10.9,3.6c-0.2,0-0.4,0-0.6,0c0-0.5,0-1,0-1.5C10.2,0.9,9.2,0,8,0S5.8,0.9,5.7,2.1c0,0.5,0,1,0,1.5c-0.2,0-0.4,0-0.6,0  C4.8,3.6,4.7,3.7,4.7,4c0,1.4,0,2.7,0,4.1c0,0.2,0.1,0.3,0.3,0.3c1.9,0,3.9,0,5.8,0c0.2,0,0.3-0.1,0.3-0.3c0-1.4,0-2.8,0-4.1  C11.1,3.8,11.1,3.6,10.9,3.6z M8,6.9c-0.6,0-1-0.4-1-1s0.4-1,1-1s1,0.4,1,1S8.6,6.9,8,6.9z M6.6,3.6c0-0.5-0.1-1.1,0-1.6  c0.1-0.7,0.8-1.2,1.5-1.1C8.9,1,9.4,1.6,9.5,2.3c0,0.4,0,0.8,0,1.3C8.5,3.6,7.6,3.6,6.6,3.6z"
     id="path3" /><g
     id="g5"><g
       id="XMLID_140_"
       transform="translate(1.3559322,-0.13559322)" /><g
       id="XMLID_1_"
       transform="translate(-0.47457627,0.13559322)"><text
         xml:space="preserve"
         style="font-style:normal;font-weight:normal;font-size:58.68321991px;line-height:1000%;font-family:sans-serif;letter-spacing:0px;word-spacing:0px;fill:#000000;fill-opacity:1;stroke:none;stroke-width:1px;stroke-linecap:butt;stroke-linejoin:miter;stroke-opacity:1"
         x="0.53096855"
         y="15.831338"
         id="text3345"
         sodipodi:linespacing="1000%"><tspan
           sodipodi:role="line"
           id="tspan3347"
           x="0.53096855"
           y="15.831338"
           style="font-style:normal;font-variant:normal;font-weight:bold;font-stretch:normal;font-size:7.33540249px;line-height:1000%;font-family:sans-serif;-inkscape-font-specification:'sans-serif Bold'">ABS</tspan></text>
</g></g></svg>